<svg width="48" height="48" viewBox="0 0 48 48" fill="none" xmlns="http://www.w3.org/2000/svg">
  <!-- Background circle with gradient -->
  <circle cx="24" cy="24" r="24" fill="url(#gradient1)"/>
  
  <!-- Dollar sign -->
  <path d="M24 10V14" stroke="white" stroke-width="2.5" stroke-linecap="round"/>
  <path d="M24 34V38" stroke="white" stroke-width="2.5" stroke-linecap="round"/>
  <path d="M24 14C22.8954 14 22 14.8954 22 16C22 17.1046 22.8954 18 24 18C25.1046 18 26 18.8954 26 20C26 21.1046 25.1046 22 24 22H22" stroke="white" stroke-width="2.5" stroke-linecap="round"/>
  <path d="M24 14C25.1046 14 26 14.8954 26 16C26 17.1046 25.1046 18 24 18C22.8954 18 22 18.8954 22 20C22 21.1046 22.8954 22 24 22H26" stroke="white" stroke-width="2.5" stroke-linecap="round"/>
  
  <!-- Chart bars on top right -->
  <rect x="32" y="28" width="3" height="8" rx="1.5" fill="white" opacity="0.9"/>
  <rect x="37" y="24" width="3" height="12" rx="1.5" fill="white"/>
  <rect x="42" y="20" width="3" height="16" rx="1.5" fill="white" opacity="0.9"/>
  
  <!-- Trending line -->
  <path d="M10 24L14 20L18 22L22 16" stroke="white" stroke-width="2" stroke-linecap="round" stroke-linejoin="round" opacity="0.7"/>
  
  <defs>
    <linearGradient id="gradient1" x1="0" y1="0" x2="48" y2="48" gradientUnits="userSpaceOnUse">
      <stop offset="0%" stop-color="#3b82f6"/>
      <stop offset="100%" stop-color="#1e40af"/>
    </linearGradient>
  </defs>
</svg>
